<?xml version="1.0" encoding="UTF-8" standalone="no"?>
<svg
   xmlns:dc="http://purl.org/dc/elements/1.1/"
   xmlns:cc="http://creativecommons.org/ns#"
   xmlns:rdf="http://www.w3.org/1999/02/22-rdf-syntax-ns#"
   xmlns:svg="http://www.w3.org/2000/svg"
   xmlns="http://www.w3.org/2000/svg"
   xmlns:sodipodi="http://sodipodi.sourceforge.net/DTD/sodipodi-0.dtd"
   xmlns:inkscape="http://www.inkscape.org/namespaces/inkscape"
   width="60mm"
   height="138mm"
   viewBox="0 0 60 138"
   version="1.1"
   id="svg8"
   sodipodi:docname="c_rocket.svg"
   inkscape:version="1.0.2-2 (e86c870879, 2021-01-15)">
  <defs
     id="defs2" />
  <sodipodi:namedview
     id="base"
     pagecolor="#ffffff"
     bordercolor="#666666"
     borderopacity="1.0"
     inkscape:pageopacity="0.0"
     inkscape:pageshadow="2"
     inkscape:zoom="2.9695652"
     inkscape:cx="123"
     inkscape:cy="314"
     inkscape:document-units="mm"
     inkscape:current-layer="layer1"
     inkscape:document-rotation="0"
     showgrid="false"
     inkscape:snap-bbox="false"
     inkscape:bbox-nodes="true"
     inkscape:snap-global="false"
     inkscape:window-width="1267"
     inkscape:window-height="729"
     inkscape:window-x="83"
     inkscape:window-y="0"
     inkscape:window-maximized="0" />
  <metadata
     id="metadata5">
    <rdf:RDF>
      <cc:Work
         rdf:about="">
        <dc:format>image/svg+xml</dc:format>
        <dc:type
           rdf:resource="http://purl.org/dc/dcmitype/StillImage" />
        <dc:title></dc:title>
      </cc:Work>
    </rdf:RDF>
  </metadata>
  <g
     inkscape:label="Layer 1"
     inkscape:groupmode="layer"
     id="layer1">
    <path
       style="fill:#000cfe;fill-opacity:0.983936;stroke:none;stroke-width:0.270398px;stroke-linecap:butt;stroke-linejoin:miter;stroke-opacity:1"
       d="m 16.660725,18.63305 26.964899,-0.120774 c 0,0 -4.690243,-9.738274 -6.473819,-12.7734287 C 35.547902,3.009448 33.166557,0.34329771 30.671289,0.13982516 27.208031,0.00252445 25.402452,2.2326292 23.410203,5.3350821 20.96541,9.1422645 18.140829,14.455508 16.660725,18.63305 Z"
       id="path847"
       sodipodi:nodetypes="ccscsc" />
    <path
       id="path849"
       style="fill:#000cfe;fill-opacity:0.983936;stroke:none;stroke-width:0.27;stroke-linecap:butt;stroke-linejoin:miter;stroke-opacity:1;stroke-miterlimit:4;stroke-dasharray:none"
       d="m 15.884471,20.154349 c 0,0 -2.786802,7.398262 -3.571539,11.956621 -0.897466,5.213188 -1.952959,15.350268 -1.601511,19.807243 0.286551,3.633974 0.585262,8.544417 1.555114,13.465973 0.969853,4.921567 2.755584,9.964027 2.755584,9.964027 H 27.338246 L 27.091858,62.426672 c 0,0 0.61515,-2.658365 3.201425,-2.658365 2.221931,0 2.832912,2.778129 2.832912,2.778129 l -0.246386,12.801777 h 12.192399 c 0,0 1.672355,-4.618174 2.739583,-9.825958 1.067231,-5.207774 1.529527,-11.005224 1.571115,-12.879702 C 49.506066,47.086939 48.817157,36.932556 47.781395,31.627728 46.8933,27.079226 44.333049,20.27516 44.333049,20.27516 Z m 14.189625,11.807047 a 10.125123,10.067207 0 0 1 0.02026,0 A 10.125123,10.067207 0 0 1 40.219672,42.02845 10.125123,10.067207 0 0 1 30.094357,52.095507 10.125123,10.067207 0 0 1 19.969044,42.02845 10.125123,10.067207 0 0 1 30.074093,31.961396 Z" />
    <rect
       style="fill:#a04106;fill-opacity:1;stroke:none;stroke-width:1.37293;stroke-linecap:round;stroke-linejoin:round;stroke-miterlimit:4;stroke-dasharray:none;stroke-opacity:1;paint-order:stroke fill markers"
       id="rect851"
       width="2.1683781"
       height="37.052937"
       x="29.182329"
       y="62.075527"
       rx="1.2583262" />
    <path
       style="fill:#a04106;fill-opacity:1;stroke:none;stroke-width:0.270398px;stroke-linecap:butt;stroke-linejoin:miter;stroke-opacity:1"
       d="m 15.761058,76.797606 h 11.699824 v 7.125688 h -8.990391 c 0,0 -0.61578,-1.207749 -1.601028,-3.381682 -0.380932,-0.840517 -1.108405,-3.744006 -1.108405,-3.744006 z"
       id="path853"
       sodipodi:nodetypes="ccccsc" />
    <path
       style="fill:#a04106;fill-opacity:1;stroke:none;stroke-width:0.270398px;stroke-linecap:butt;stroke-linejoin:miter;stroke-opacity:1"
       d="m 32.756592,77.039151 h 11.822977 c 0,0 -0.584146,2.133097 -1.108406,3.381683 -0.862086,2.053175 -1.724183,3.381682 -1.724183,3.381682 h -8.744079 z"
       id="path855"
       sodipodi:nodetypes="ccsccc" />
    <path
       style="fill:#a04106;fill-opacity:1;stroke:none;stroke-width:0.270398px;stroke-linecap:butt;stroke-linejoin:miter;stroke-opacity:1"
       d="m 45.811135,78.609215 c 0,0 4.187305,2.173943 5.788329,5.072523 1.448721,2.622848 2.8326,7.004921 2.8326,9.178854 0,2.173943 -0.369479,6.280273 0.246309,6.642607 0.768804,0.452366 2.384689,-2.693215 2.955739,-3.985562 1.601024,-3.623238 2.604114,-12.72631 2.093653,-17.270736 -0.439047,-3.908606 -2.70943,-9.299632 -5.172551,-12.439768 -1.274312,-1.624573 -4.556784,-4.10633 -4.556784,-4.10633 0,0 -0.492618,5.193291 -1.354715,7.971104 -0.862087,2.777813 -2.83258,8.937308 -2.83258,8.937308 z"
       id="path857"
       sodipodi:nodetypes="csssssscsc" />
    <path
       style="fill:#a04106;fill-opacity:1;stroke:none;stroke-width:0.270398px;stroke-linecap:butt;stroke-linejoin:miter;stroke-opacity:1"
       d="m 9.84957,61.82157 c 0,0 1.089254,6.407438 2.093652,9.299632 0.966837,2.784027 2.586277,7.488013 2.586277,7.488013 0,0 -1.477872,0.60388 -2.955745,1.811619 -1.477871,1.207749 -3.3460319,3.90562 -4.0641486,5.31408 -0.8620939,1.690831 -1.9704979,7.00491 -1.7241858,9.420399 0.2219537,2.176625 0.6157819,4.468654 -0.2463121,4.468654 -1.2315585,0 -4.2083021,-6.760015 -4.679927,-9.661955 C 0.41040211,87.200634 -0.20537869,83.849141 0.36865125,79.104643 0.94268118,74.360135 2.7065198,70.396554 4.8001722,67.014872 6.094357,64.924494 9.84957,61.82157 9.84957,61.82157 Z"
       id="path859"
       sodipodi:nodetypes="cscsssssssc" />
    <ellipse
       style="fill:none;fill-opacity:0.983936;stroke:#000bfe;stroke-width:1.302;stroke-linecap:round;stroke-linejoin:round;stroke-miterlimit:4;stroke-dasharray:none;paint-order:markers fill stroke;stroke-opacity:0.98431373"
       id="path906"
       cx="30.156012"
       cy="42.071499"
       rx="8.3900986"
       ry="8.4344053" />
    <ellipse
       style="fill:#ff0000;fill-opacity:0.98393601;stroke:none;stroke-width:0.773;stroke-linecap:round;stroke-linejoin:round;stroke-miterlimit:4;stroke-dasharray:none;paint-order:markers fill stroke;stroke-opacity:1"
       id="path906-6"
       cx="30.120911"
       cy="41.968231"
       rx="5.0766616"
       ry="4.9096365" />
  </g>
</svg>
