<?xml version="1.0" encoding="UTF-8" standalone="no"?>
<svg
   xmlns:osb="http://www.openswatchbook.org/uri/2009/osb"
   xmlns:dc="http://purl.org/dc/elements/1.1/"
   xmlns:cc="http://creativecommons.org/ns#"
   xmlns:rdf="http://www.w3.org/1999/02/22-rdf-syntax-ns#"
   xmlns:svg="http://www.w3.org/2000/svg"
   xmlns="http://www.w3.org/2000/svg"
   xmlns:sodipodi="http://sodipodi.sourceforge.net/DTD/sodipodi-0.dtd"
   xmlns:inkscape="http://www.inkscape.org/namespaces/inkscape"
   width="200mm"
   height="160mm"
   viewBox="0 0 200 160"
   version="1.1"
   id="svg960"
   inkscape:version="1.0.2-2 (e86c870879, 2021-01-15)"
   sodipodi:docname="rock.svg">
  <defs
     id="defs954">
    <linearGradient
       id="linearGradient12519"
       osb:paint="solid">
      <stop
         style="stop-color:#000000;stop-opacity:1;"
         offset="0"
         id="stop12517" />
    </linearGradient>
  </defs>
  <sodipodi:namedview
     id="base"
     pagecolor="#ffffff"
     bordercolor="#666666"
     borderopacity="1.0"
     inkscape:pageopacity="0.0"
     inkscape:pageshadow="2"
     inkscape:zoom="0.25"
     inkscape:cx="596.72477"
     inkscape:cy="538.5"
     inkscape:document-units="mm"
     inkscape:current-layer="layer1"
     inkscape:document-rotation="0"
     showgrid="false"
     inkscape:snap-nodes="false"
     inkscape:window-width="1366"
     inkscape:window-height="715"
     inkscape:window-x="-8"
     inkscape:window-y="-8"
     inkscape:window-maximized="1" />
  <metadata
     id="metadata957">
    <rdf:RDF>
      <cc:Work
         rdf:about="">
        <dc:format>image/svg+xml</dc:format>
        <dc:type
           rdf:resource="http://purl.org/dc/dcmitype/StillImage" />
        <dc:title />
      </cc:Work>
    </rdf:RDF>
  </metadata>
  <g
     inkscape:label="Layer 1"
     inkscape:groupmode="layer"
     id="layer1">
    <path
       id="path1537"
       style="fill:#b68052;fill-opacity:1;fill-rule:evenodd;stroke:none;stroke-width:0.316461px;stroke-linecap:butt;stroke-linejoin:miter;stroke-opacity:1"
       d="m 178.99554,147.55267 c -1.28172,0.79881 -2.62641,1.59116 -4.0969,2.34812 -1.69326,0.87165 -3.49199,1.70768 -5.35219,2.4885 -1.56323,0.65618 -3.18306,1.24683 -4.8062,1.81427 5.60939,-1.85773 10.48881,-4.12024 14.25529,-6.65089 z" />
    <path
       id="path14272"
       style="fill:#b68052;fill-opacity:1;fill-rule:evenodd;stroke:none;stroke-width:0.316461px;stroke-linecap:butt;stroke-linejoin:miter;stroke-opacity:1"
       d="m 200.40495,106.9001 c -0.34185,1.66393 -0.74599,3.34969 -1.20856,5.04012 -0.47523,1.73667 -1.00703,3.47708 -1.58004,5.19948 -0.57302,1.72241 -1.18737,3.42686 -1.8281,5.09223 -0.64077,1.66534 -1.30737,3.29134 -1.98582,4.85685 -0.67847,1.5655 -1.36887,3.07051 -2.05498,4.49338 -0.55317,1.14716 -1.09751,2.19653 -1.63801,3.22587 3.89176,-6.36323 7.75599,-14.46032 9.44971,-21.79948 0.48299,-2.0929 0.71324,-4.12328 0.8458,-6.10845 z" />
    <path
       id="path14270"
       style="fill:#b68052;fill-opacity:1;fill-rule:evenodd;stroke:none;stroke-width:0.316461px;stroke-linecap:butt;stroke-linejoin:miter;stroke-opacity:1"
       d="m 196.75496,85.537036 c 0.0143,0.03132 0.0324,0.06302 0.0467,0.09434 0.3396,0.744331 0.62198,1.480896 0.92372,2.22003 -0.0405,-0.122566 -0.10768,-0.362679 -0.14459,-0.473172 -0.20079,-0.601617 -0.4944,-1.218422 -0.82587,-1.841248 z" />
    <g
       id="g14277"
       transform="matrix(1.2061413,0,0,1.1860915,-11.141809,-74.31199)">
      <g
         id="g14282">
        <g
           id="g14286">
          <path
             id="path14268"
             style="fill:#d49e6c;fill-opacity:1;fill-rule:evenodd;stroke:none;stroke-width:0.999999px;stroke-linecap:butt;stroke-linejoin:miter;stroke-opacity:1"
             d="m 417.63672,288.83398 c -0.0877,2.9e-4 -0.15619,-0.002 -0.24414,-0.002 -5.00026,0.0192 -10.35036,0.11832 -15.97656,0.32813 -5.62621,0.2098 -11.52802,0.53099 -17.63477,0.99218 -6.10675,0.4612 -12.41749,1.06252 -18.85937,1.83594 -6.44189,0.77342 -13.01486,1.71877 -19.64649,2.86524 -6.63163,1.14646 -13.32208,2.49387 -19.99805,4.07421 -6.67596,1.58035 -13.33916,3.39371 -19.91406,5.46875 -6.57489,2.07505 -13.0622,4.4124 -19.39062,7.04297 -3.16422,1.31529 -6.28795,2.70435 -9.36328,4.16993 -3.07534,1.46557 -6.10204,3.00739 -9.07032,4.63085 -2.96827,1.62347 -5.87766,3.32823 -8.7207,5.11719 -2.84305,1.78896 -5.62067,3.66294 -8.32031,5.625 -2.69964,1.96206 -5.32132,4.01154 -7.85938,6.1543 -2.53805,2.14276 -4.99131,4.37792 -7.34961,6.70898 -2.3583,2.33107 -4.62283,4.75819 -6.7832,7.28516 -2.16037,2.52697 -4.2159,5.15428 -6.16016,7.88476 -1.94426,2.73049 -3.77635,5.56426 -5.48632,8.50586 -1.70998,2.9416 -3.29835,5.99008 -4.75586,9.1504 -1.45752,3.16031 -2.78382,6.43171 -3.97071,9.81835 -1.18688,3.38665 -2.23474,6.8892 -3.13281,10.50977 -1.10209,4.44306 -1.96935,8.90177 -2.61328,13.37109 -0.64393,4.46933 -1.06429,8.94911 -1.27539,13.4375 -0.21111,4.4884 -0.212,8.98411 -0.0156,13.48438 0.19638,4.50027 0.58946,9.00481 1.16797,13.50976 0.57852,4.50495 1.34204,9.01124 2.27735,13.51368 0.93531,4.50243 2.04182,9.00141 3.30859,13.49414 1.26676,4.49273 2.6947,8.97925 4.26758,13.45507 1.57287,4.47583 3.29088,8.94085 5.14453,13.39258 1.85365,4.45174 3.84209,8.8901 5.95117,13.31055 2.10908,4.42045 4.33857,8.82311 6.67773,13.20508 2.33917,4.38196 4.78813,8.74379 7.33204,13.08008 2.5439,4.33628 5.18294,8.64627 7.90625,12.92968 5.44662,8.56684 11.22805,17.0218 17.24023,25.33399 C 268.38132,590.82977 274.625,599 281,607 c 4.08439,5.12551 8.33879,10.13413 12.73438,15.01953 4.39558,4.8854 8.93138,9.64718 13.58398,14.28125 4.6526,4.63407 9.4219,9.1402 14.27734,13.51172 4.85544,4.37152 9.79863,8.60928 14.80274,12.70703 5.0041,4.09775 10.06742,8.05442 15.16601,11.86719 5.0986,3.81277 10.23218,7.48148 15.3711,10.99805 5.13891,3.51656 10.28314,6.88265 15.4082,10.09179 5.12506,3.20914 10.23008,6.26185 15.28711,9.15235 5.05703,2.89049 10.06713,5.61709 15.00195,8.17773 4.93482,2.56064 9.7943,4.95427 14.55274,7.17383 4.75844,2.21956 9.41547,4.26555 13.94336,6.13281 4.52788,1.86726 8.92676,3.5568 13.16992,5.06055 4.24316,1.50375 8.33012,2.82216 12.23437,3.95117 3.90426,1.12901 7.62554,2.06749 11.13672,2.81055 3.51118,0.74306 6.81303,1.29083 9.87696,1.63672 3.06392,0.34589 5.89062,0.49023 8.45312,0.42773 2.5625,-0.0625 5.21646,-0.22925 7.94531,-0.49219 1.39201,-0.13412 2.85283,-0.3616 4.28125,-0.54492 15.15212,-2.80181 29.71077,-6.34312 42.91211,-10.78906 5.08617,-1.80821 10.16207,-3.69033 15.06055,-5.78125 5.82905,-2.48814 11.46553,-5.15215 16.77148,-7.92969 4.60788,-2.41212 8.82155,-4.93698 12.83789,-7.48242 5.92807,-4.05034 11.07314,-8.28836 15.04297,-12.71289 5.77845,-6.44031 12.79591,-16.28086 19.78321,-27.89844 1.69372,-3.27996 3.39944,-6.6239 5.13281,-10.2793 2.15004,-4.53409 4.31344,-9.32977 6.43945,-14.31836 2.12602,-4.98858 4.21479,-10.16983 6.22266,-15.47656 2.00786,-5.30673 3.93293,-10.73803 5.72851,-16.22656 1.79558,-5.48853 3.46201,-11.03437 4.95118,-16.56836 1.4495,-5.38661 2.7159,-10.75833 3.7871,-16.06055 1.80679,-27.51655 -5.06061,-50.46488 -8.39648,-60.69922 -0.94555,-2.35529 -1.83044,-4.70238 -2.89453,-7.07421 -0.0448,-0.0999 -0.10148,-0.2009 -0.14649,-0.30079 -11.05499,-21.12403 -43.3513,-45.44993 -56.98828,-59.83984 -26.03614,-27.47365 -51.88397,-51.66337 -54.67968,-55.91016 -3.72027,-5.65126 -11.61894,0.53692 -22.28125,0.5918 -10.66228,0.0548 -22.90713,-2.86874 -31.38086,-9.39844 -16.37779,-12.62059 -39.59153,-34.54277 -36.06836,-51.86914 4.17037,-20.50918 10.06955,-16.24752 -16.45899,-33.09961 -5.24496,-3.74315 -10.57348,-7.41484 -15.96484,-11.00586 z"
             transform="scale(0.26458333)" />
          <path
             id="path14266"
             style="fill:#b68052;fill-opacity:1;fill-rule:evenodd;stroke:none;stroke-width:0.999999px;stroke-linecap:butt;stroke-linejoin:miter;stroke-opacity:1"
             d="M 283.33203,238.54883 C 237.97474,236.76694 201.47914,250.38797 162.36719,265.26562 100.48996,289.76767 50.766257,360.28749 41.25,430.8125 c -14.736728,109.21395 1.857473,177.13945 89.74805,230.74805 55.44142,33.8163 225.66394,82.54909 310.20507,83.47265 22.72372,0.24826 45.49891,-2.09017 67.02344,-6.07031 -1.42842,0.18332 -2.88924,0.4108 -4.28125,0.54492 C 501.21646,739.77075 498.5625,739.9375 496,740 c -2.5625,0.0625 -5.3892,-0.0818 -8.45312,-0.42773 -3.06393,-0.34589 -6.36578,-0.89366 -9.87696,-1.63672 -3.51118,-0.74306 -7.23246,-1.68154 -11.13672,-2.81055 -3.90425,-1.12901 -7.99121,-2.44742 -12.23437,-3.95117 -4.24316,-1.50375 -8.64204,-3.19329 -13.16992,-5.06055 -4.52789,-1.86726 -9.18492,-3.91325 -13.94336,-6.13281 -4.75844,-2.21956 -9.61792,-4.61319 -14.55274,-7.17383 -4.93482,-2.56064 -9.94492,-5.28724 -15.00195,-8.17773 -5.05703,-2.8905 -10.16205,-5.94321 -15.28711,-9.15235 -5.12506,-3.20914 -10.26929,-6.57523 -15.4082,-10.09179 -5.13892,-3.51657 -10.2725,-7.18528 -15.3711,-10.99805 -5.09859,-3.81277 -10.16191,-7.76944 -15.16601,-11.86719 -5.00411,-4.09775 -9.9473,-8.33551 -14.80274,-12.70703 -4.85544,-4.37152 -9.62474,-8.87765 -14.27734,-13.51172 -4.6526,-4.63407 -9.1884,-9.39585 -13.58398,-14.28125 C 289.33879,617.13413 285.08439,612.12551 281,607 c -6.375,-8 -12.61868,-16.17023 -18.63086,-24.48242 -6.01218,-8.31219 -11.79361,-16.76715 -17.24023,-25.33399 -2.72331,-4.28341 -5.36235,-8.5934 -7.90625,-12.92968 -2.54391,-4.33629 -4.99287,-8.69812 -7.33204,-13.08008 -2.33916,-4.38197 -4.56865,-8.78463 -6.67773,-13.20508 -2.10908,-4.42045 -4.09752,-8.85881 -5.95117,-13.31055 -1.85365,-4.45173 -3.57166,-8.91675 -5.14453,-13.39258 -1.57288,-4.47582 -3.00082,-8.96234 -4.26758,-13.45507 -1.26677,-4.49273 -2.37328,-8.99171 -3.30859,-13.49414 -0.93531,-4.50244 -1.69883,-9.00873 -2.27735,-13.51368 -0.57851,-4.50495 -0.97159,-9.00949 -1.16797,-13.50976 -0.19637,-4.50027 -0.19548,-8.99598 0.0156,-13.48438 0.2111,-4.48839 0.63146,-8.96817 1.27539,-13.4375 0.64393,-4.46932 1.51119,-8.92803 2.61328,-13.37109 0.89807,-3.62057 1.94593,-7.12312 3.13281,-10.50977 1.18689,-3.38664 2.51319,-6.65804 3.97071,-9.81835 1.45751,-3.16032 3.04588,-6.2088 4.75586,-9.1504 1.70997,-2.9416 3.54206,-5.77537 5.48632,-8.50586 1.94426,-2.73048 3.99979,-5.35779 6.16016,-7.88476 2.16037,-2.52697 4.4249,-4.95409 6.7832,-7.28516 2.3583,-2.33106 4.81156,-4.56622 7.34961,-6.70898 2.53806,-2.14276 5.15974,-4.19224 7.85938,-6.1543 2.69964,-1.96206 5.47726,-3.83604 8.32031,-5.625 2.84304,-1.78896 5.75243,-3.49372 8.7207,-5.11719 2.96828,-1.62346 5.99498,-3.16528 9.07032,-4.63085 3.07533,-1.46558 6.19906,-2.85464 9.36328,-4.16993 6.32842,-2.63057 12.81573,-4.96792 19.39062,-7.04297 6.5749,-2.07504 13.2381,-3.8884 19.91406,-5.46875 6.67597,-1.58034 13.36642,-2.92775 19.99805,-4.07421 6.63163,-1.14647 13.2046,-2.09182 19.64649,-2.86524 6.44188,-0.77342 12.75262,-1.37474 18.85937,-1.83594 6.10675,-0.46119 12.00856,-0.78238 17.63477,-0.99218 5.6262,-0.20981 10.9763,-0.30889 15.97656,-0.32813 0.0879,-3.4e-4 0.1564,0.002 0.24414,0.002 -35.36905,-23.55818 -73.80146,-43.09233 -114.29102,-48.5371 -6.87483,-0.92449 -13.53406,-1.4935 -20.01367,-1.74805 z"
             transform="scale(0.26458333)" />
        </g>
      </g>
    </g>
    <path
       style="fill:#9d693c;fill-opacity:1;stroke:none;stroke-width:0.316461px;stroke-linecap:butt;stroke-linejoin:miter;stroke-opacity:1"
       d="M 9.5283665,96.651792 C 11.901366,105.28956 24.594088,124.61798 27.649188,120.83567 29.321413,118.17238 15.331946,103.15296 13.999761,93.318129 11.450408,83.978862 15.741272,63.612819 13.015031,62.796894 7.2575695,63.158106 7.0748875,87.721086 9.5283665,96.651792 Z"
       id="path14386"
       sodipodi:nodetypes="scccs" />
    <path
       style="fill:#b68052;fill-opacity:1;stroke:none;stroke-width:0.316461px;stroke-linecap:butt;stroke-linejoin:miter;stroke-opacity:1"
       d="m 66.089583,59.842115 c 10.275624,7.989857 20.45001,9.368865 27.264098,9.368865 7.094739,0 18.809969,-4.172883 16.419269,-11.561581 -2.12842,-6.578135 -4.35819,-9.867202 -18.54769,-15.647984 -20.75548,-8.134233 -40.438904,5.110936 -25.135677,17.8407 z"
       id="path1555"
       sodipodi:nodetypes="csscc" />
    <path
       style="fill:#9d693c;fill-opacity:1;stroke:none;stroke-width:0.316461px;stroke-linecap:butt;stroke-linejoin:miter;stroke-opacity:1"
       d="M 29.056907,73.508077 C 38.071166,72.310198 40.216294,64.830722 39.04568,49.310643 28.315554,26.400614 15.225564,70.118714 29.056907,73.508077 Z"
       id="path14301"
       sodipodi:nodetypes="ccc" />
    <path
       style="fill:#b68052;fill-opacity:1;stroke:none;stroke-width:0.316461px;stroke-linecap:butt;stroke-linejoin:miter;stroke-opacity:1"
       d="m 100.9663,128.20328 c 8.28338,6.22906 35.27862,4.97861 32.88987,-8.62481 -8.78111,-20.514243 -47.695726,-5.78517 -32.88987,8.62481 z"
       id="path14301-6"
       sodipodi:nodetypes="ccc" />
    <path
       style="fill:#b68052;fill-opacity:1;stroke:none;stroke-width:0.316461px;stroke-linecap:butt;stroke-linejoin:miter;stroke-opacity:1"
       d="m 131.14197,82.277635 c -1.46176,9.583153 30.8933,12.405549 28.50457,-1.197891 -8.5375,-11.889404 -27.47457,-9.857988 -28.50457,1.197891 z"
       id="path14301-6-3"
       sodipodi:nodetypes="ccc" />
    <path
       style="fill:#b68052;fill-opacity:1;stroke:none;stroke-width:0.316461px;stroke-linecap:butt;stroke-linejoin:miter;stroke-opacity:1"
       d="m 158.50648,127.50373 c 1.21815,9.82273 26.508,-0.53168 24.11925,-14.13511 -8.53748,-11.88943 -23.08925,3.07923 -24.11925,14.13511 z"
       id="path14301-6-3-2"
       sodipodi:nodetypes="ccc" />
    <path
       style="fill:#9d693c;fill-opacity:1;stroke:none;stroke-width:0.316461px;stroke-linecap:butt;stroke-linejoin:miter;stroke-opacity:1"
       d="m 40.549729,115.08024 c 1.218154,9.82273 26.507995,-0.53169 24.119243,-14.13513 -8.537477,-11.889408 -23.089247,3.07925 -24.119243,14.13513 z"
       id="path14301-6-3-2-7"
       sodipodi:nodetypes="ccc" />
  </g>
  <g
     inkscape:groupmode="layer"
     id="layer2"
     inkscape:label="Layer 2" />
</svg>
