<?xml version="1.0" encoding="UTF-8" standalone="no"?>
<svg
   xmlns:dc="http://purl.org/dc/elements/1.1/"
   xmlns:cc="http://creativecommons.org/ns#"
   xmlns:rdf="http://www.w3.org/1999/02/22-rdf-syntax-ns#"
   xmlns:svg="http://www.w3.org/2000/svg"
   xmlns="http://www.w3.org/2000/svg"
   xmlns:sodipodi="http://sodipodi.sourceforge.net/DTD/sodipodi-0.dtd"
   xmlns:inkscape="http://www.inkscape.org/namespaces/inkscape"
   width="160mm"
   height="200mm"
   viewBox="0 0 160 200"
   version="1.1"
   id="svg8"
   inkscape:version="1.0.2-2 (e86c870879, 2021-01-15)"
   sodipodi:docname="rock2.svg">
  <defs
     id="defs2" />
  <sodipodi:namedview
     id="base"
     pagecolor="#ffffff"
     bordercolor="#666666"
     borderopacity="1.0"
     inkscape:pageopacity="0.0"
     inkscape:pageshadow="2"
     inkscape:zoom="0.5"
     inkscape:cx="279.67702"
     inkscape:cy="431.95699"
     inkscape:document-units="mm"
     inkscape:current-layer="layer1"
     inkscape:document-rotation="0"
     showgrid="false"
     inkscape:snap-nodes="false"
     inkscape:window-width="1267"
     inkscape:window-height="729"
     inkscape:window-x="78"
     inkscape:window-y="0"
     inkscape:window-maximized="0" />
  <metadata
     id="metadata5">
    <rdf:RDF>
      <cc:Work
         rdf:about="">
        <dc:format>image/svg+xml</dc:format>
        <dc:type
           rdf:resource="http://purl.org/dc/dcmitype/StillImage" />
        <dc:title></dc:title>
      </cc:Work>
    </rdf:RDF>
  </metadata>
  <g
     inkscape:label="Layer 1"
     inkscape:groupmode="layer"
     id="layer1">
    <path
       id="path847"
       style="fill:#8785a8;fill-opacity:1;stroke:none;stroke-width:0.627533;stroke-linecap:butt;stroke-linejoin:miter;stroke-miterlimit:4;stroke-dasharray:none;stroke-opacity:1"
       d="m 158.53013,63.106283 c -0.37757,0.48605 -0.762,0.964715 -1.1989,1.364826 -0.54894,0.502697 -1.14535,0.931818 -1.78786,1.271288 -0.64252,0.339455 -1.33112,0.588808 -2.06713,0.734301 -0.5847,0.115663 -1.2647,0.349404 -2.02974,0.674096 -0.76505,0.324678 -1.61511,0.740854 -2.54273,1.222567 -1.85524,0.963441 -4.01848,2.188595 -6.41759,3.467814 -2.39911,1.279233 -5.03394,2.612251 -7.83501,3.790756 -1.40052,0.589273 -2.84329,1.140278 -4.3177,1.626275 -1.47443,0.485985 -2.98116,0.907294 -4.51172,1.237941 -1.76931,0.382259 -3.4255,0.799522 -4.97328,1.249508 -1.54777,0.449973 -2.9873,0.931514 -4.32006,1.441719 -1.33276,0.51019 -2.55896,1.049231 -3.68321,1.612148 -1.12427,0.562942 -2.14627,1.150079 -3.06858,1.758254 -0.92229,0.608171 -1.74576,1.237926 -2.47261,1.883864 -0.72686,0.645924 -1.35743,1.30763 -1.89536,1.983809 -0.53795,0.676164 -0.98242,1.365607 -1.33797,2.064521 -0.35555,0.698953 -0.62193,1.408015 -0.80162,2.122221 -0.30879,1.227385 -0.69685,3.308393 -1.13347,5.950144 -0.43662,2.641745 -0.92141,5.843695 -1.42328,9.315425 -1.003721,6.94352 -2.075272,14.96315 -2.964564,21.72064 -0.169948,1.29138 -0.49806,2.46696 -0.946513,3.53573 -0.448443,1.06879 -1.018172,2.03039 -1.672171,2.89627 -0.65399,0.86586 -1.39155,1.63566 -2.178146,2.31828 -0.786586,0.68263 -1.621707,1.27893 -2.467939,1.79797 -0.846224,0.51906 -1.703968,0.96019 -2.536881,1.33537 -0.832915,0.37515 -1.64067,0.68329 -2.387315,0.93422 -1.493283,0.50186 -2.741379,0.77535 -3.451848,0.89835 -1.420935,0.24607 -4.464884,0.66465 -8.355005,0.93808 -1.945059,0.13668 -4.102059,0.23657 -6.373176,0.26145 -2.271122,0.0248 -4.656093,-0.0261 -7.059106,-0.19224 -2.554268,-0.17662 -5.140881,-0.15187 -7.646878,0.0372 -2.506004,0.18892 -4.931976,0.54301 -7.161941,1.02266 -2.229958,0.47965 -4.26492,1.08574 -5.991066,1.78133 -0.863074,0.34778 -1.648495,0.71821 -2.342904,1.10594 -0.694416,0.38778 -1.297593,0.79272 -1.794867,1.21108 -0.996904,0.83865 -2.316915,1.71359 -3.843305,2.52846 -1.526391,0.81484 -3.258531,1.56945 -5.079616,2.16961 -1.821078,0.60018 -3.731485,1.04592 -5.612462,1.24051 -0.940486,0.0974 -1.873169,0.13078 -2.784609,0.0909 -0.911441,-0.04 -1.801866,-0.15401 -2.654907,-0.35496 -0.853038,-0.20092 -1.65273,-0.48065 -2.401334,-0.81888 -0.748608,-0.33829 -1.445985,-0.73434 -2.091676,-1.16877 C 9.6227098,152.29815 8.53565,151.27825 7.6468607,150.27203 6.7580799,149.26578 6.0675283,148.27302 5.569215,147.45907 5.070899,146.64512 4.7648612,146.0095 4.6449053,145.71746 4.245171,144.7444 3.8943289,144.13671 3.310441,142.88145 c -1.0346761,8.9157 -3.30986080772,17.93451 -1.2748697,24.66431 5.2187766,17.25861 20.6443927,22.66843 35.2931897,23.1867 14.6488,0.51822 58.786174,9.15316 65.408619,8.75413 13.88838,-0.83691 22.58645,-17.26667 31.46626,-27.32733 9.82199,-11.12819 29.89262,-28.81867 21.58512,-48.85316 -4.73532,-11.41979 -10.58711,-27.072148 -4.66946,-39.368556 3.89151,-8.086289 6.21585,-14.926335 7.41083,-20.831261 z" />
    <path
       id="path897"
       style="fill:#b1adc6;fill-opacity:1;stroke:none;stroke-width:0.627533;stroke-linecap:butt;stroke-linejoin:miter;stroke-miterlimit:4;stroke-dasharray:none;stroke-opacity:1"
       d="m 155.44171,38.84311 c -0.38132,-0.352407 -0.71039,-0.701579 -1.12297,-1.055995 -1.00473,-0.8631 -2.10198,-1.733161 -3.28823,-2.614315 -2.37254,-1.76229 -5.10298,-3.570335 -8.16923,-5.456753 -1.5331,-0.943188 -3.06292,-1.805139 -4.58648,-2.591251 -1.52355,-0.786092 -3.03982,-1.49623 -4.54676,-2.133742 -1.50695,-0.637496 -3.00384,-1.2019 -4.48715,-1.699298 -1.48333,-0.497397 -2.95389,-0.927281 -4.40655,-1.293063 -1.45265,-0.365779 -2.8876,-0.668512 -4.30254,-0.911178 -1.41495,-0.242645 -2.80963,-0.425575 -4.17984,-0.553604 -2.74042,-0.256079 -5.38467,-0.291151 -7.90395,-0.139591 -0.99009,0.05947 -2.14388,0.309556 -3.40977,0.704834 -1.26592,0.395279 -2.64345,0.935803 -4.08171,1.577565 -2.876492,1.283511 -5.994245,2.970719 -8.939262,4.704487 -2.945025,1.733765 -5.717041,3.514107 -7.902793,4.98386 -2.185747,1.469773 -3.785661,2.628977 -4.384332,3.120526 -0.713919,0.586163 -1.376568,1.207904 -1.992351,1.859494 -0.61578,0.65161 -1.184622,1.333615 -1.709561,2.04149 -1.049878,1.415729 -1.924658,2.934146 -2.654906,4.519937 -0.730254,1.58579 -1.315403,3.23854 -1.784355,4.921069 -0.468945,1.68254 -0.821923,3.394555 -1.087899,5.10048 -0.265981,1.705941 -0.445401,3.406044 -0.566739,5.062058 -0.121345,1.656 -0.184655,3.267843 -0.219687,4.800606 -0.07007,3.065485 -0.0257,5.811731 -0.100494,7.944178 -0.03739,1.066237 -0.238675,2.162996 -0.569075,3.27047 -0.330398,1.107462 -0.789878,2.225547 -1.346149,3.335823 -0.556269,1.110247 -1.209566,2.212521 -1.924569,3.287115 -0.715009,1.074594 -1.491899,2.12132 -2.298505,3.121793 -1.613215,2.000973 -3.342717,3.815041 -4.919526,5.288873 -1.576802,1.473828 -3.001244,2.607024 -4.004562,3.246115 -0.459563,0.29274 -1.177844,0.560662 -2.09167,0.803528 -0.913826,0.242853 -2.022802,0.461287 -3.266053,0.657423 -2.486495,0.392274 -5.50672,0.69455 -8.561835,0.918848 -3.055118,0.224281 -6.144844,0.370878 -8.769842,0.452384 -2.624991,0.08143 -4.785594,0.09766 -5.981715,0.06143 -1.095131,-0.03285 -2.215019,0.09634 -3.340837,0.358819 -1.125812,0.262465 -2.258157,0.657396 -3.378226,1.154663 -1.120068,0.497263 -2.22789,1.097108 -3.305779,1.768518 -1.077895,0.671414 -2.125378,1.415504 -3.124658,2.200404 -0.99928,0.78487 -1.950624,1.61127 -2.8348584,2.44898 -0.8842359,0.83771 -1.7013005,1.68576 -2.4340553,2.51565 -0.7327547,0.82985 -1.3808977,1.64149 -1.9257435,2.40285 -0.5448421,0.76135 -0.985919,1.47337 -1.3064149,2.10557 -0.3340617,0.65895 -0.6297064,1.38006 -0.893928,2.15808 -0.2642221,0.77803 -0.4978784,1.61294 -0.7069616,2.49645 -0.4000886,1.69054 -0.7049652,3.58084 -0.9815716,5.58488 0.384462,2.72153 0.8141273,5.3166 1.3122616,7.27651 1.129451,4.44391 0.9201697,9.32313 0.3505635,14.23138 0.5838871,1.25526 0.9347292,1.86297 1.3344635,2.83601 0.1199542,0.29204 0.4259946,0.92767 0.9243106,1.74161 0.4983124,0.81396 1.188864,1.80672 2.0776458,2.81297 0.8887892,1.00621 1.975849,2.0261 3.2672203,2.89498 0.645691,0.43444 1.343068,0.83047 2.091675,1.16876 0.748604,0.33825 1.548296,0.61797 2.401335,0.81888 0.85304,0.20089 1.743466,0.31511 2.654907,0.35497 0.91144,0.04 1.844122,0.005 2.784609,-0.0909 1.880976,-0.19458 3.791386,-0.64035 5.612463,-1.24053 1.821083,-0.60015 3.553224,-1.35476 5.079614,-2.16962 1.52639,-0.81486 2.846402,-1.6898 3.843306,-2.52845 0.497273,-0.41836 1.100451,-0.82331 1.794866,-1.21108 0.694409,-0.38774 1.47983,-0.75815 2.342905,-1.10594 1.726146,-0.69557 3.761108,-1.30167 5.991065,-1.78133 2.229968,-0.47965 4.655937,-0.83372 7.161942,-1.02265 2.505998,-0.18892 5.09261,-0.21375 7.646878,-0.0373 2.403012,0.16612 4.787983,0.21708 7.059106,0.19223 2.271117,-0.0249 4.428117,-0.12482 6.373175,-0.26143 3.890121,-0.27345 6.93407,-0.69204 8.355006,-0.93809 0.71047,-0.12295 1.958564,-0.39647 3.451847,-0.89835 0.746645,-0.25093 1.5544,-0.55908 2.387316,-0.93424 0.832912,-0.37516 1.690656,-0.8163 2.536881,-1.33535 0.846231,-0.51904 1.681352,-1.11537 2.467938,-1.79799 0.786596,-0.68261 1.524156,-1.45242 2.178146,-2.31826 0.653999,-0.86588 1.223728,-1.82749 1.672171,-2.89627 0.448453,-1.06878 0.776574,-2.24435 0.946513,-3.53575 0.889292,-6.75747 1.960843,-14.77711 2.964564,-21.72062 0.50187,-3.47174 0.98666,-6.6737 1.42328,-9.315428 0.43662,-2.641754 0.82468,-4.722763 1.13347,-5.950144 0.17969,-0.71421 0.44607,-1.423269 0.80162,-2.122223 0.35556,-0.698928 0.80002,-1.388356 1.33797,-2.064533 0.53793,-0.676167 1.1685,-1.337874 1.89536,-1.983798 0.72685,-0.645937 1.55032,-1.27569 2.47261,-1.883864 0.92231,-0.608174 1.94431,-1.195312 3.06858,-1.758253 1.12425,-0.562917 2.35045,-1.101956 3.68321,-1.612149 1.33276,-0.510206 2.77229,-0.991759 4.32007,-1.441718 1.54777,-0.449985 3.20396,-0.867249 4.97327,-1.249508 1.53056,-0.330648 3.03729,-0.751957 4.51172,-1.237954 1.47441,-0.485984 2.91716,-1.037003 4.3177,-1.626263 2.80107,-1.178503 5.4359,-2.511535 7.83501,-3.790754 2.39911,-1.279219 4.56235,-2.504374 6.41759,-3.467827 0.92762,-0.4817 1.77768,-0.897876 2.54273,-1.222553 0.76504,-0.324694 1.44504,-0.558501 2.02974,-0.674098 0.73601,-0.145441 1.42461,-0.394847 2.06713,-0.734315 0.64251,-0.339458 1.23892,-0.768576 1.78786,-1.271273 0.4369,-0.400126 0.82133,-0.878776 1.1989,-1.364828 2.19797,-10.861118 0.44361,-18.44686 -3.08842,-24.263178 z" />
    <path
       id="path895"
       style="fill:#c4c1d6;fill-opacity:1;stroke:none;stroke-width:0.627533;stroke-linecap:butt;stroke-linejoin:miter;stroke-miterlimit:4;stroke-dasharray:none;stroke-opacity:1"
       d="M 101.39591,0.50362105 C 95.34801,0.60227529 89.038665,2.7254845 82.659652,7.7532125 66.96621,20.122336 47.77432,27.114092 41.230496,40.767954 36.032539,55.796793 34.84313,62.454431 29.944807,66.461326 26.708501,69.10866 5.3479551,79.194823 2.116197,90.295201 -0.17981396,98.181535 0.25860448,111.54095 1.6476167,121.37354 c 0.2766064,-2.00404 0.581483,-3.89434 0.9815697,-5.58488 0.2090832,-0.88349 0.4427405,-1.71841 0.7069635,-2.49643 0.2642216,-0.77803 0.5598644,-1.49914 0.8939262,-2.15809 0.3204968,-0.63219 0.7615746,-1.34421 1.3064158,-2.10557 0.5448448,-0.76136 1.1929897,-1.57298 1.9257444,-2.40285 0.7327548,-0.82988 1.5498185,-1.67793 2.4340544,-2.51566 0.8842343,-0.8377 1.8355783,-1.6641 2.8348583,-2.44897 0.999281,-0.7849 2.046764,-1.52898 3.124659,-2.200403 1.077888,-0.67141 2.185711,-1.271255 3.305779,-1.768518 1.120067,-0.497266 2.252414,-0.892198 3.378225,-1.154663 1.125818,-0.262424 2.245705,-0.391841 3.340838,-0.358818 1.196121,0.03613 3.356722,0.01999 5.981715,-0.06143 2.624998,-0.08143 5.714722,-0.228102 8.769841,-0.452383 3.055114,-0.224297 6.075341,-0.526575 8.561836,-0.918847 1.243251,-0.196138 2.352226,-0.414571 3.266053,-0.657425 0.913825,-0.242865 1.632106,-0.510786 2.091669,-0.803527 1.003319,-0.639092 2.42776,-1.772285 4.004562,-3.246116 1.576809,-1.473831 3.306312,-3.287899 4.919526,-5.288873 0.806607,-1.000474 1.583497,-2.047199 2.298506,-3.121793 0.715002,-1.074593 1.368298,-2.176868 1.924569,-3.287115 0.556271,-1.110275 1.015751,-2.228361 1.346149,-3.335822 0.3304,-1.107475 0.531683,-2.204235 0.569074,-3.27047 0.07479,-2.132447 0.03043,-4.878693 0.100494,-7.944179 0.03504,-1.532764 0.09834,-3.144606 0.219687,-4.800606 0.121344,-1.656014 0.300759,-3.356116 0.56674,-5.062057 0.265974,-1.705925 0.618954,-3.417939 1.087898,-5.100481 0.468953,-1.682528 1.054102,-3.335278 1.784356,-4.921068 0.730247,-1.585791 1.605028,-3.104208 2.654905,-4.519939 0.524939,-0.707875 1.093781,-1.389879 1.709562,-2.041488 0.615783,-0.651589 1.27843,-1.273333 1.992351,-1.859494 0.598669,-0.49155 2.198585,-1.650754 4.384331,-3.120526 2.185752,-1.469754 4.957768,-3.250095 7.902794,-4.98386 2.945017,-1.733768 6.06277,-3.420977 8.939262,-4.704487 1.43826,-0.641763 2.81579,-1.182285 4.08171,-1.577565 1.26589,-0.395279 2.41968,-0.645312 3.40977,-0.704834 2.51928,-0.151483 5.16353,-0.116392 7.90395,0.139591 1.37021,0.128091 2.76489,0.310959 4.17984,0.553603 1.41494,0.242666 2.84989,0.5454 4.30254,0.911179 1.45266,0.365782 2.92322,0.795665 4.40655,1.293063 1.48331,0.497397 2.9802,1.061801 4.48715,1.699296 1.50694,0.637513 3.02321,1.347653 4.54676,2.133744 1.52356,0.786111 3.05338,1.648061 4.58648,2.591251 3.06625,1.88642 5.79669,3.694465 8.16923,5.456752 1.18625,0.881155 2.2835,1.751215 3.28823,2.614317 0.41258,0.354415 0.74165,0.703585 1.12297,1.055993 C 150.27062,30.327678 141.34424,25.567764 135.49954,19.876476 126.74452,9.8685524 114.70127,0.28649617 101.39591,0.50362105 Z" />
    <path
       style="fill:#6f6e90;fill-opacity:1;stroke:none;stroke-width:0.626549px;stroke-linecap:butt;stroke-linejoin:miter;stroke-opacity:1"
       d="m 85.096482,182.20158 c 16.433518,-2.80357 15.337948,-27.63472 -5.112649,-25.23169 -28.220021,9.05452 -8.482883,26.77723 5.112649,25.23169 z"
       id="path902"
       sodipodi:nodetypes="ccc" />
    <path
       style="fill:#6f6e90;fill-opacity:1;stroke:none;stroke-width:0.626549px;stroke-linecap:butt;stroke-linejoin:miter;stroke-opacity:1"
       d="m 126.39997,134.77634 c 9.12973,-6.00753 15.33794,-27.63472 -5.11265,-25.23167 -16.53398,8.65404 -8.4829,26.77723 5.11265,25.23167 z"
       id="path902-6"
       sodipodi:nodetypes="ccc" />
    <path
       style="fill:#8785a8;fill-opacity:1;stroke:none;stroke-width:0.626549px;stroke-linecap:butt;stroke-linejoin:miter;stroke-opacity:1"
       d="m 72.351942,129.1693 c 16.433509,-4.00504 12.416444,-28.43571 -5.112644,-25.2317 -12.516888,6.65155 -8.482897,26.77725 5.112644,25.2317 z"
       id="path902-6-9"
       sodipodi:nodetypes="ccc" />
    <path
       style="fill:#8785a8;fill-opacity:1;stroke:none;stroke-width:0.626549px;stroke-linecap:butt;stroke-linejoin:miter;stroke-opacity:1"
       d="m 123.47845,61.484346 c 6.93858,-3.204044 13.51197,-17.622128 -5.47784,-24.03018 -18.725109,3.046987 -8.1177,25.575729 5.47784,24.03018 z"
       id="path902-6-9-4"
       sodipodi:nodetypes="ccc" />
    <path
       style="fill:#8785a8;fill-opacity:1;stroke:none;stroke-width:0.626549px;stroke-linecap:butt;stroke-linejoin:miter;stroke-opacity:1"
       d="m 22.686208,135.97783 c 12.416417,-7.20907 5.112645,-18.42315 -4.017075,-16.82112 -12.2740565,2.61735 -7.387328,17.96619 4.017075,16.82112 z"
       id="path902-6-9-4-5"
       sodipodi:nodetypes="ccc" />
    <path
       style="fill:#b1adc6;fill-opacity:1;stroke:none;stroke-width:0.626549px;stroke-linecap:butt;stroke-linejoin:miter;stroke-opacity:1"
       d="M 40.449533,84.040461 C 47.388117,80.836417 47.753305,73.226906 38.623591,74.0279 26.106705,77.475379 33.792588,83.583498 40.449533,84.040461 Z"
       id="path902-6-9-4-9"
       sodipodi:nodetypes="ccc" />
    <path
       style="fill:#b1adc6;fill-opacity:1;stroke:none;stroke-width:0.626549px;stroke-linecap:butt;stroke-linejoin:miter;stroke-opacity:1"
       d="m 58.304978,60.67835 c 6.938584,-3.204056 7.303773,-10.813553 -1.825944,-10.012575 -12.516882,3.447496 -5.92657,14.361672 1.825944,10.012575 z"
       id="path902-6-9-4-9-1"
       sodipodi:nodetypes="ccc" />
    <path
       style="fill:#b1adc6;fill-opacity:1;stroke:none;stroke-width:0.626549px;stroke-linecap:butt;stroke-linejoin:miter;stroke-opacity:1"
       d="m 86.424547,22.230071 c 8.764536,1.601994 7.303771,-10.81353 -1.825942,-10.012564 -8.499802,2.245981 -4.831002,9.555619 1.825942,10.012564 z"
       id="path902-6-9-4-9-1-4"
       sodipodi:nodetypes="ccc" />
  </g>
  <g
     inkscape:groupmode="layer"
     id="layer2"
     inkscape:label="Layer 2" />
</svg>
